<svg xmlns="http://www.w3.org/2000/svg" xmlns:xlink="http://www.w3.org/1999/xlink" width="1080" zoomAndPan="magnify" viewBox="0 0 810 1012.49997" height="1350" preserveAspectRatio="xMidYMid meet" version="1.0"><defs><g/><clipPath id="eb62556219"><path d="M 0.199219 0 L 809.800781 0 L 809.800781 1012 L 0.199219 1012 Z M 0.199219 0 " clip-rule="nonzero"/></clipPath><clipPath id="2823bf2938"><path d="M 198.230469 537.464844 L 225.496094 537.464844 L 225.496094 597.28125 L 198.230469 597.28125 Z M 198.230469 537.464844 " clip-rule="nonzero"/></clipPath><clipPath id="310d2280ef"><path d="M 0.230469 0.464844 L 27.496094 0.464844 L 27.496094 60.28125 L 0.230469 60.28125 Z M 0.230469 0.464844 " clip-rule="nonzero"/></clipPath><clipPath id="514e880ebf"><rect x="0" width="28" y="0" height="61"/></clipPath><clipPath id="19294b8f64"><path d="M 162.066406 570.46875 L 220.765625 570.46875 L 220.765625 597.289062 L 162.066406 597.289062 Z M 162.066406 570.46875 " clip-rule="nonzero"/></clipPath><clipPath id="4a2d569ad5"><path d="M 0.0664062 0.46875 L 58.765625 0.46875 L 58.765625 27.289062 L 0.0664062 27.289062 Z M 0.0664062 0.46875 " clip-rule="nonzero"/></clipPath><clipPath id="c8d32675d1"><rect x="0" width="59" y="0" height="28"/></clipPath><clipPath id="699954e6f6"><path d="M 165 496 L 226 496 L 226 556 L 165 556 Z M 165 496 " clip-rule="nonzero"/></clipPath><clipPath id="f7f40a6520"><path d="M 207.386719 555.710938 L 165.878906 514.203125 L 183.984375 496.097656 L 225.492188 537.605469 Z M 207.386719 555.710938 " clip-rule="nonzero"/></clipPath><clipPath id="04b7b9209a"><path d="M 0.71875 0.0742188 L 60.6875 0.0742188 L 60.6875 59.804688 L 0.71875 59.804688 Z M 0.71875 0.0742188 " clip-rule="nonzero"/></clipPath><clipPath id="4bfd6d36d9"><path d="M 42.386719 59.710938 L 0.878906 18.203125 L 18.984375 0.0976562 L 60.492188 41.605469 Z M 42.386719 59.710938 " clip-rule="nonzero"/></clipPath><clipPath id="4133a6008e"><rect x="0" width="61" y="0" height="60"/></clipPath><clipPath id="490db4dce7"><path d="M 138 457 L 226 457 L 226 545 L 138 545 Z M 138 457 " clip-rule="nonzero"/></clipPath><clipPath id="72f8238230"><path d="M 225.496094 476.25 L 157.503906 544.238281 L 138.347656 525.082031 L 206.335938 457.089844 Z M 225.496094 476.25 " clip-rule="nonzero"/></clipPath><clipPath id="a63b5f92d8"><path d="M 0.132812 0 L 87.6875 0 L 87.6875 87.292969 L 0.132812 87.292969 Z M 0.132812 0 " clip-rule="nonzero"/></clipPath><clipPath id="a232f50f4f"><path d="M 87.496094 19.25 L 19.503906 87.238281 L 0.347656 68.082031 L 68.335938 0.0898438 Z M 87.496094 19.25 " clip-rule="nonzero"/></clipPath><clipPath id="dc737d9416"><rect x="0" width="88" y="0" height="88"/></clipPath><clipPath id="fe064b1b2d"><path d="M 198.398438 415.851562 L 225.492188 415.851562 L 225.492188 476.34375 L 198.398438 476.34375 Z M 198.398438 415.851562 " clip-rule="nonzero"/></clipPath><clipPath id="71b4b6585b"><path d="M 0.398438 0.851562 L 27.492188 0.851562 L 27.492188 61.34375 L 0.398438 61.34375 Z M 0.398438 0.851562 " clip-rule="nonzero"/></clipPath><clipPath id="3c9eec3bc6"><rect x="0" width="28" y="0" height="62"/></clipPath><clipPath id="b1775ac904"><path d="M 162.058594 415.847656 L 220.757812 415.847656 L 220.757812 442.941406 L 162.058594 442.941406 Z M 162.058594 415.847656 " clip-rule="nonzero"/></clipPath><clipPath id="6c9e677ac0"><path d="M 0.0585938 0.847656 L 58.757812 0.847656 L 58.757812 27.941406 L 0.0585938 27.941406 Z M 0.0585938 0.847656 " clip-rule="nonzero"/></clipPath><clipPath id="c1ef5dc289"><rect x="0" width="59" y="0" height="28"/></clipPath><clipPath id="ddc5224703"><path d="M 138 415 L 182 415 L 182 459 L 138 459 Z M 138 415 " clip-rule="nonzero"/></clipPath><clipPath id="d02010bdc8"><path d="M 181.050781 435.007812 L 157.496094 458.5625 L 138.339844 439.402344 L 161.890625 415.851562 Z M 181.050781 435.007812 " clip-rule="nonzero"/></clipPath><clipPath id="b38af956bf"><path d="M 0.132812 0.714844 L 43.070312 0.714844 L 43.070312 43.652344 L 0.132812 43.652344 Z M 0.132812 0.714844 " clip-rule="nonzero"/></clipPath><clipPath id="cbad7cbba9"><path d="M 43.050781 20.007812 L 19.496094 43.5625 L 0.339844 24.402344 L 23.890625 0.851562 Z M 43.050781 20.007812 " clip-rule="nonzero"/></clipPath><clipPath id="617279cca6"><rect x="0" width="44" y="0" height="44"/></clipPath><clipPath id="8c180c1b69"><path d="M 96 511 L 182 511 L 182 598 L 96 598 Z M 96 511 " clip-rule="nonzero"/></clipPath><clipPath id="cb249efa4d"><path d="M 115.390625 511.179688 L 181.054688 579.183594 L 162.300781 597.292969 L 96.636719 529.289062 Z M 115.390625 511.179688 " clip-rule="nonzero"/></clipPath><clipPath id="1683cf82e3"><path d="M 0.632812 0 L 85.070312 0 L 85.070312 86.304688 L 0.632812 86.304688 Z M 0.632812 0 " clip-rule="nonzero"/></clipPath><clipPath id="c880081f69"><path d="M 19.390625 0.179688 L 85.054688 68.183594 L 66.300781 86.292969 L 0.636719 18.289062 Z M 19.390625 0.179688 " clip-rule="nonzero"/></clipPath><clipPath id="f8fb4dc21c"><rect x="0" width="86" y="0" height="87"/></clipPath><clipPath id="7ba9ab38d3"><path d="M 37.550781 415.714844 L 64.820312 415.714844 L 64.820312 475.527344 L 37.550781 475.527344 Z M 37.550781 415.714844 " clip-rule="nonzero"/></clipPath><clipPath id="0fba2448aa"><path d="M 0.550781 0.714844 L 27.820312 0.714844 L 27.820312 60.527344 L 0.550781 60.527344 Z M 0.550781 0.714844 " clip-rule="nonzero"/></clipPath><clipPath id="f8e8d0dbfa"><rect x="0" width="28" y="0" height="61"/></clipPath><clipPath id="6bfeb9052e"><path d="M 42.28125 415.703125 L 100.984375 415.703125 L 100.984375 442.527344 L 42.28125 442.527344 Z M 42.28125 415.703125 " clip-rule="nonzero"/></clipPath><clipPath id="c10ab21213"><path d="M 0.28125 0.703125 L 58.984375 0.703125 L 58.984375 27.527344 L 0.28125 27.527344 Z M 0.28125 0.703125 " clip-rule="nonzero"/></clipPath><clipPath id="4453716312"><rect x="0" width="59" y="0" height="28"/></clipPath><clipPath id="82a3e1c661"><path d="M 37 457 L 98 457 L 98 517 L 37 517 Z M 37 457 " clip-rule="nonzero"/></clipPath><clipPath id="3574a91855"><path d="M 55.660156 457.285156 L 97.167969 498.792969 L 79.0625 516.898438 L 37.554688 475.390625 Z M 55.660156 457.285156 " clip-rule="nonzero"/></clipPath><clipPath id="49a4f896b2"><path d="M 0.382812 0.214844 L 60.351562 0.214844 L 60.351562 59.945312 L 0.382812 59.945312 Z M 0.382812 0.214844 " clip-rule="nonzero"/></clipPath><clipPath id="45d4027961"><path d="M 18.660156 0.285156 L 60.167969 41.792969 L 42.0625 59.898438 L 0.554688 18.390625 Z M 18.660156 0.285156 " clip-rule="nonzero"/></clipPath><clipPath id="2e4d607db0"><rect x="0" width="61" y="0" height="60"/></clipPath><clipPath id="8ea1951937"><path d="M 37 468 L 125 468 L 125 556 L 37 556 Z M 37 468 " clip-rule="nonzero"/></clipPath><clipPath id="50a12cae49"><path d="M 37.5625 536.753906 L 105.550781 468.761719 L 124.710938 487.921875 L 56.71875 555.910156 Z M 37.5625 536.753906 " clip-rule="nonzero"/></clipPath><clipPath id="1c4e1f107e"><path d="M 0.382812 0.726562 L 87.9375 0.726562 L 87.9375 88 L 0.382812 88 Z M 0.382812 0.726562 " clip-rule="nonzero"/></clipPath><clipPath id="bccf765a52"><path d="M 0.5625 68.753906 L 68.550781 0.761719 L 87.710938 19.921875 L 19.71875 87.910156 Z M 0.5625 68.753906 " clip-rule="nonzero"/></clipPath><clipPath id="ff837bc479"><rect x="0" width="88" y="0" height="88"/></clipPath><clipPath id="cdff9ead68"><path d="M 37.558594 536.660156 L 64.652344 536.660156 L 64.652344 597.152344 L 37.558594 597.152344 Z M 37.558594 536.660156 " clip-rule="nonzero"/></clipPath><clipPath id="bce6b305ee"><path d="M 0.558594 0.660156 L 27.652344 0.660156 L 27.652344 61.152344 L 0.558594 61.152344 Z M 0.558594 0.660156 " clip-rule="nonzero"/></clipPath><clipPath id="53fb813fec"><rect x="0" width="28" y="0" height="62"/></clipPath><clipPath id="8cadd19613"><path d="M 42.289062 570.0625 L 100.992188 570.0625 L 100.992188 597.15625 L 42.289062 597.15625 Z M 42.289062 570.0625 " clip-rule="nonzero"/></clipPath><clipPath id="f0528763a7"><path d="M 0.289062 0.0625 L 58.992188 0.0625 L 58.992188 27.15625 L 0.289062 27.15625 Z M 0.289062 0.0625 " clip-rule="nonzero"/></clipPath><clipPath id="f4292aee8f"><rect x="0" width="59" y="0" height="28"/></clipPath><clipPath id="5730a0d57e"><path d="M 81 554 L 125 554 L 125 598 L 81 598 Z M 81 554 " clip-rule="nonzero"/></clipPath><clipPath id="95f8972962"><path d="M 81.996094 577.996094 L 105.550781 554.441406 L 124.710938 573.601562 L 101.15625 597.152344 Z M 81.996094 577.996094 " clip-rule="nonzero"/></clipPath><clipPath id="8fafa17421"><path d="M 0.757812 0.367188 L 43.9375 0.367188 L 43.9375 43.304688 L 0.757812 43.304688 Z M 0.757812 0.367188 " clip-rule="nonzero"/></clipPath><clipPath id="7a5d4adfac"><path d="M 0.996094 23.996094 L 24.550781 0.441406 L 43.710938 19.601562 L 20.15625 43.152344 Z M 0.996094 23.996094 " clip-rule="nonzero"/></clipPath><clipPath id="44242736ff"><rect x="0" width="44" y="0" height="44"/></clipPath><clipPath id="bc197a7a88"><path d="M 81 415 L 167 415 L 167 502 L 81 502 Z M 81 415 " clip-rule="nonzero"/></clipPath><clipPath id="80d5b5bc06"><path d="M 147.65625 501.816406 L 81.996094 433.8125 L 100.75 415.707031 L 166.410156 483.707031 Z M 147.65625 501.816406 " clip-rule="nonzero"/></clipPath><clipPath id="a676a83e9c"><path d="M 1 0.476562 L 85.4375 0.476562 L 85.4375 86.832031 L 1 86.832031 Z M 1 0.476562 " clip-rule="nonzero"/></clipPath><clipPath id="aff9e86d2f"><path d="M 66.65625 86.816406 L 0.996094 18.8125 L 19.75 0.707031 L 85.410156 68.707031 Z M 66.65625 86.816406 " clip-rule="nonzero"/></clipPath><clipPath id="18a7fe6be6"><rect x="0" width="86" y="0" height="87"/></clipPath></defs><g clip-path="url(#eb62556219)"><path fill="#ffffff" d="M 0.199219 0 L 809.800781 0 L 809.800781 1012 L 0.199219 1012 Z M 0.199219 0 " fill-opacity="1" fill-rule="nonzero"/><path fill="#ffffff" d="M 0.199219 0 L 809.800781 0 L 809.800781 1012 L 0.199219 1012 Z M 0.199219 0 " fill-opacity="1" fill-rule="nonzero"/></g><g fill="#1a2b4a" fill-opacity="1"><g transform="translate(252.804088, 578.139514)"><g><path d="M 13.015625 0 L 13.015625 -134.59375 L 32.15625 -134.59375 L 106.234375 -34.875 L 96.296875 -32.875 L 96.296875 -134.59375 L 120.875 -134.59375 L 120.875 0 L 101.53125 0 L 28.546875 -100.453125 L 37.578125 -102.4375 L 37.578125 0 Z M 13.015625 0 "/></g></g></g><g fill="#1a2b4a" fill-opacity="1"><g transform="translate(383.068878, 578.139514)"><g><path d="M 64.859375 2.171875 C 54.503906 2.171875 45.320312 0.00390625 37.3125 -4.328125 C 29.300781 -8.671875 23.003906 -14.632812 18.421875 -22.21875 C 13.847656 -29.8125 11.5625 -38.425781 11.5625 -48.0625 L 11.5625 -134.59375 L 36.140625 -134.59375 L 36.140625 -49.328125 C 36.140625 -43.785156 37.375 -38.785156 39.84375 -34.328125 C 42.3125 -29.867188 45.710938 -26.40625 50.046875 -23.9375 C 54.378906 -21.46875 59.316406 -20.234375 64.859375 -20.234375 C 70.523438 -20.234375 75.492188 -21.46875 79.765625 -23.9375 C 84.046875 -26.40625 87.421875 -29.867188 89.890625 -34.328125 C 92.359375 -38.785156 93.59375 -43.785156 93.59375 -49.328125 L 93.59375 -134.59375 L 118.15625 -134.59375 L 118.15625 -48.0625 C 118.15625 -38.425781 115.863281 -29.8125 111.28125 -22.21875 C 106.707031 -14.632812 100.414062 -8.671875 92.40625 -4.328125 C 84.40625 0.00390625 75.222656 2.171875 64.859375 2.171875 Z M 64.859375 2.171875 "/></g></g></g><g fill="#1a2b4a" fill-opacity="1"><g transform="translate(509.1782, 578.139514)"><g><path d="M 13.015625 0 L 13.015625 -134.59375 L 56.90625 -134.59375 C 71.125 -134.59375 83.5 -131.734375 94.03125 -126.015625 C 104.570312 -120.296875 112.734375 -112.40625 118.515625 -102.34375 C 124.296875 -92.289062 127.1875 -80.640625 127.1875 -67.390625 C 127.1875 -54.265625 124.296875 -42.609375 118.515625 -32.421875 C 112.734375 -22.242188 104.570312 -14.296875 94.03125 -8.578125 C 83.5 -2.859375 71.125 0 56.90625 0 Z M 37.578125 -21.6875 L 57.453125 -21.6875 C 66.609375 -21.6875 74.523438 -23.582031 81.203125 -27.375 C 87.890625 -31.164062 93.097656 -36.460938 96.828125 -43.265625 C 100.566406 -50.078125 102.4375 -58.117188 102.4375 -67.390625 C 102.4375 -76.785156 100.566406 -84.851562 96.828125 -91.59375 C 93.097656 -98.34375 87.890625 -103.582031 81.203125 -107.3125 C 74.523438 -111.050781 66.609375 -112.921875 57.453125 -112.921875 L 37.578125 -112.921875 Z M 37.578125 -21.6875 "/></g></g></g><g fill="#1a2b4a" fill-opacity="1"><g transform="translate(639.262299, 578.139514)"><g><path d="M 79.3125 2.171875 C 69.4375 2.171875 60.222656 0.425781 51.671875 -3.0625 C 43.117188 -6.5625 35.648438 -11.441406 29.265625 -17.703125 C 22.878906 -23.960938 17.910156 -31.335938 14.359375 -39.828125 C 10.804688 -48.328125 9.03125 -57.515625 9.03125 -67.390625 C 9.03125 -77.390625 10.773438 -86.601562 14.265625 -95.03125 C 17.765625 -103.46875 22.703125 -110.816406 29.078125 -117.078125 C 35.460938 -123.335938 42.929688 -128.179688 51.484375 -131.609375 C 60.035156 -135.046875 69.3125 -136.765625 79.3125 -136.765625 C 89.3125 -136.765625 98.585938 -135.019531 107.140625 -131.53125 C 115.691406 -128.039062 123.160156 -123.191406 129.546875 -116.984375 C 135.929688 -110.785156 140.898438 -103.46875 144.453125 -95.03125 C 148.003906 -86.601562 149.78125 -77.390625 149.78125 -67.390625 C 149.78125 -57.515625 147.972656 -48.328125 144.359375 -39.828125 C 140.742188 -31.335938 135.742188 -23.960938 129.359375 -17.703125 C 122.972656 -11.441406 115.535156 -6.5625 107.046875 -3.0625 C 98.554688 0.425781 89.3125 2.171875 79.3125 2.171875 Z M 79.3125 -20.234375 C 85.9375 -20.234375 92.019531 -21.40625 97.5625 -23.75 C 103.101562 -26.101562 107.953125 -29.382812 112.109375 -33.59375 C 116.265625 -37.8125 119.457031 -42.8125 121.6875 -48.59375 C 123.914062 -54.375 125.03125 -60.640625 125.03125 -67.390625 C 125.03125 -74.140625 123.914062 -80.375 121.6875 -86.09375 C 119.457031 -91.8125 116.265625 -96.804688 112.109375 -101.078125 C 107.953125 -105.359375 103.101562 -108.640625 97.5625 -110.921875 C 92.019531 -113.210938 85.9375 -114.359375 79.3125 -114.359375 C 72.8125 -114.359375 66.789062 -113.210938 61.25 -110.921875 C 55.707031 -108.640625 50.859375 -105.359375 46.703125 -101.078125 C 42.546875 -96.804688 39.320312 -91.8125 37.03125 -86.09375 C 34.75 -80.375 33.609375 -74.140625 33.609375 -67.390625 C 33.609375 -60.640625 34.75 -54.375 37.03125 -48.59375 C 39.320312 -42.8125 42.546875 -37.8125 46.703125 -33.59375 C 50.859375 -29.382812 55.707031 -26.101562 61.25 -23.75 C 66.789062 -21.40625 72.8125 -20.234375 79.3125 -20.234375 Z M 79.3125 -20.234375 "/></g></g></g><g clip-path="url(#2823bf2938)"><g transform="matrix(1, 0, 0, 1, 198, 537)"><g clip-path="url(#514e880ebf)"><g clip-path="url(#310d2280ef)"><path fill="#1a2b4a" d="M 0.230469 60.28125 L 0.230469 0.421875 L 27.496094 0.421875 L 27.496094 60.28125 Z M 0.230469 60.28125 " fill-opacity="1" fill-rule="nonzero"/></g></g></g></g><g clip-path="url(#19294b8f64)"><g transform="matrix(1, 0, 0, 1, 162, 570)"><g clip-path="url(#c8d32675d1)"><g clip-path="url(#4a2d569ad5)"><path fill="#1a2b4a" d="M 0.0664062 0.46875 L 58.738281 0.46875 L 58.738281 27.289062 L 0.0664062 27.289062 Z M 0.0664062 0.46875 " fill-opacity="1" fill-rule="nonzero"/></g></g></g></g><g clip-path="url(#699954e6f6)"><g clip-path="url(#f7f40a6520)"><g transform="matrix(1, 0, 0, 1, 165, 496)"><g clip-path="url(#4133a6008e)"><g clip-path="url(#04b7b9209a)"><g clip-path="url(#4bfd6d36d9)"><path fill="#1a2b4a" d="M 42.386719 59.710938 L 0.875 18.195312 L 18.980469 0.09375 L 60.492188 41.605469 Z M 42.386719 59.710938 " fill-opacity="1" fill-rule="nonzero"/></g></g></g></g></g></g><g clip-path="url(#490db4dce7)"><g clip-path="url(#72f8238230)"><g transform="matrix(1, 0, 0, 1, 138, 457)"><g clip-path="url(#dc737d9416)"><g clip-path="url(#a63b5f92d8)"><g clip-path="url(#a232f50f4f)"><path fill="#1a2b4a" d="M 87.496094 19.25 L 19.542969 87.203125 L 0.382812 68.046875 L 68.335938 0.0898438 Z M 87.496094 19.25 " fill-opacity="1" fill-rule="nonzero"/></g></g></g></g></g></g><g clip-path="url(#fe064b1b2d)"><g transform="matrix(1, 0, 0, 1, 198, 415)"><g clip-path="url(#3c9eec3bc6)"><g clip-path="url(#71b4b6585b)"><path fill="#1a2b4a" d="M 27.492188 0.851562 L 27.492188 61.390625 L 0.398438 61.390625 L 0.398438 0.851562 Z M 27.492188 0.851562 " fill-opacity="1" fill-rule="nonzero"/></g></g></g></g><g clip-path="url(#b1775ac904)"><g transform="matrix(1, 0, 0, 1, 162, 415)"><g clip-path="url(#c1ef5dc289)"><g clip-path="url(#6c9e677ac0)"><path fill="#1a2b4a" d="M 58.757812 27.941406 L 0.0195312 27.941406 L 0.0195312 0.847656 L 58.757812 0.847656 Z M 58.757812 27.941406 " fill-opacity="1" fill-rule="nonzero"/></g></g></g></g><g clip-path="url(#ddc5224703)"><g clip-path="url(#d02010bdc8)"><g transform="matrix(1, 0, 0, 1, 138, 415)"><g clip-path="url(#617279cca6)"><g clip-path="url(#b38af956bf)"><g clip-path="url(#cbad7cbba9)"><path fill="#1a2b4a" d="M 43.050781 20.007812 L 19.476562 43.582031 L 0.316406 24.425781 L 23.890625 0.851562 Z M 43.050781 20.007812 " fill-opacity="1" fill-rule="nonzero"/></g></g></g></g></g></g><g clip-path="url(#8c180c1b69)"><g clip-path="url(#cb249efa4d)"><g transform="matrix(1, 0, 0, 1, 96, 511)"><g clip-path="url(#f8fb4dc21c)"><g clip-path="url(#1683cf82e3)"><g clip-path="url(#c880081f69)"><path fill="#1a2b4a" d="M 19.390625 0.179688 L 85.035156 68.164062 L 66.28125 86.273438 L 0.636719 18.289062 Z M 19.390625 0.179688 " fill-opacity="1" fill-rule="nonzero"/></g></g></g></g></g></g><g clip-path="url(#7ba9ab38d3)"><g transform="matrix(1, 0, 0, 1, 37, 415)"><g clip-path="url(#f8e8d0dbfa)"><g clip-path="url(#0fba2448aa)"><path fill="#1a2b4a" d="M 27.820312 0.714844 L 27.820312 60.574219 L 0.550781 60.574219 L 0.550781 0.714844 Z M 27.820312 0.714844 " fill-opacity="1" fill-rule="nonzero"/></g></g></g></g><g clip-path="url(#6bfeb9052e)"><g transform="matrix(1, 0, 0, 1, 42, 415)"><g clip-path="url(#4453716312)"><g clip-path="url(#c10ab21213)"><path fill="#1a2b4a" d="M 58.984375 27.527344 L 0.308594 27.527344 L 0.308594 0.703125 L 58.984375 0.703125 Z M 58.984375 27.527344 " fill-opacity="1" fill-rule="nonzero"/></g></g></g></g><g clip-path="url(#82a3e1c661)"><g clip-path="url(#3574a91855)"><g transform="matrix(1, 0, 0, 1, 37, 457)"><g clip-path="url(#2e4d607db0)"><g clip-path="url(#49a4f896b2)"><g clip-path="url(#45d4027961)"><path fill="#1a2b4a" d="M 18.660156 0.285156 L 60.171875 41.796875 L 42.070312 59.902344 L 0.554688 18.390625 Z M 18.660156 0.285156 " fill-opacity="1" fill-rule="nonzero"/></g></g></g></g></g></g><g clip-path="url(#8ea1951937)"><g clip-path="url(#50a12cae49)"><g transform="matrix(1, 0, 0, 1, 37, 468)"><g clip-path="url(#ff837bc479)"><g clip-path="url(#1c4e1f107e)"><g clip-path="url(#bccf765a52)"><path fill="#1a2b4a" d="M 0.5625 68.753906 L 68.515625 0.800781 L 87.675781 19.957031 L 19.71875 87.910156 Z M 0.5625 68.753906 " fill-opacity="1" fill-rule="nonzero"/></g></g></g></g></g></g><g clip-path="url(#cdff9ead68)"><g transform="matrix(1, 0, 0, 1, 37, 536)"><g clip-path="url(#53fb813fec)"><g clip-path="url(#bce6b305ee)"><path fill="#1a2b4a" d="M 0.558594 61.152344 L 0.558594 0.613281 L 27.652344 0.613281 L 27.652344 61.152344 Z M 0.558594 61.152344 " fill-opacity="1" fill-rule="nonzero"/></g></g></g></g><g clip-path="url(#8cadd19613)"><g transform="matrix(1, 0, 0, 1, 42, 570)"><g clip-path="url(#f4292aee8f)"><g clip-path="url(#f0528763a7)"><path fill="#1a2b4a" d="M 0.289062 0.0625 L 59.03125 0.0625 L 59.03125 27.15625 L 0.289062 27.15625 Z M 0.289062 0.0625 " fill-opacity="1" fill-rule="nonzero"/></g></g></g></g><g clip-path="url(#5730a0d57e)"><g clip-path="url(#95f8972962)"><g transform="matrix(1, 0, 0, 1, 81, 554)"><g clip-path="url(#44242736ff)"><g clip-path="url(#8fafa17421)"><g clip-path="url(#7a5d4adfac)"><path fill="#1a2b4a" d="M 0.996094 23.996094 L 24.570312 0.421875 L 43.730469 19.578125 L 20.15625 43.152344 Z M 0.996094 23.996094 " fill-opacity="1" fill-rule="nonzero"/></g></g></g></g></g></g><g clip-path="url(#bc197a7a88)"><g clip-path="url(#80d5b5bc06)"><g transform="matrix(1, 0, 0, 1, 81, 415)"><g clip-path="url(#18a7fe6be6)"><g clip-path="url(#a676a83e9c)"><g clip-path="url(#aff9e86d2f)"><path fill="#1a2b4a" d="M 66.65625 86.816406 L 1.011719 18.832031 L 19.769531 0.726562 L 85.410156 68.707031 Z M 66.65625 86.816406 " fill-opacity="1" fill-rule="nonzero"/></g></g></g></g></g></g></svg>