<svg xmlns="http://www.w3.org/2000/svg" width="916" height="1145" viewBox="0 0 916 1145">
<g>
<path d="M 0.00 0.00 L 916.00 0.00 L 916.00 1145.00 L 0.00 1145.00 ZM 240.00 542.16 C246.82,543.12 247.81,542.40 270.12,520.01 C282.01,508.09 292.51,497.16 293.44,495.73 C294.73,493.77 294.98,492.04 294.47,488.67 C293.85,484.52 292.47,482.85 274.80,464.86 C264.34,454.21 254.49,444.02 252.89,442.22 L 250.00 438.93 L 250.00 400.03 C250.00,363.83 250.12,361.10 251.75,360.67 C252.71,360.41 270.31,360.14 290.86,360.06 C324.36,359.93 328.50,360.09 330.86,361.60 C333.02,362.99 435.08,464.96 484.87,515.50 C491.92,522.65 500.91,531.54 504.85,535.25 C511.38,541.41 512.38,542.00 516.28,542.00 C519.08,542.00 521.10,541.40 522.13,540.25 C523.00,539.29 529.06,533.26 535.61,526.85 C542.15,520.44 552.11,510.47 557.75,504.69 C567.73,494.45 568.00,494.06 568.00,489.59 C568.00,487.07 567.58,485.00 567.07,485.00 C566.55,485.00 565.86,484.12 565.52,483.05 C564.57,480.07 365.93,281.26 362.68,280.05 C360.79,279.34 329.04,279.00 265.46,279.00 L 171.05 279.00 L 169.43 281.46 C167.96,283.70 167.88,292.34 168.53,377.71 L 169.25 471.50 L 172.49 475.50 C174.28,477.70 189.64,493.52 206.62,510.66 C227.87,532.09 238.28,541.92 240.00,542.16 ZM 169.87 855.34 C171.13,856.86 179.01,857.00 266.47,857.00 L 361.70 857.00 L 365.60 854.15 C369.52,851.28 429.83,790.13 431.06,787.77 C431.43,787.07 431.51,784.70 431.23,782.50 C430.78,778.83 428.72,776.48 406.01,753.75 C389.96,737.69 380.56,729.00 379.25,729.00 C377.94,729.00 368.92,737.29 353.70,752.50 L 330.18 776.00 L 290.65 776.00 C268.91,776.00 250.91,775.66 250.66,775.25 C250.40,774.84 250.04,757.38 249.85,736.46 C249.52,700.91 249.62,698.22 251.34,695.46 C252.35,693.83 276.43,669.42 304.84,641.21 C410.35,536.46 431.00,515.68 431.15,514.11 C431.54,509.77 430.59,505.22 428.73,502.51 C425.51,497.82 390.93,463.07 386.88,460.47 C384.89,459.19 381.58,457.82 379.53,457.44 L 375.80 456.74 L 299.91 532.62 C258.17,574.35 213.16,619.29 199.89,632.48 C186.61,645.67 174.29,658.27 172.49,660.48 L 169.23 664.50 L 168.87 759.09 C168.56,838.19 168.72,853.96 169.87,855.34 ZM 552.59 854.99 C555.37,856.77 559.58,856.86 649.08,856.93 L 742.65 857.00 L 747.07 852.30 L 746.78 760.40 C746.52,674.09 746.39,668.26 744.69,664.63 C742.05,659.01 682.32,599.04 675.85,595.52 C671.01,592.88 670.81,592.86 668.69,594.61 C667.48,595.60 656.04,606.98 643.25,619.90 C623.30,640.06 620.00,643.82 620.00,646.40 C620.00,648.99 623.18,652.51 643.50,672.45 L 667.00 695.50 L 667.00 735.13 C667.00,766.45 666.73,774.98 665.70,775.84 C663.92,777.31 586.99,777.62 584.37,776.16 C582.05,774.86 486.09,678.48 441.20,632.35 C416.55,607.02 406.81,597.66 403.47,596.09 C398.99,593.98 398.95,593.98 395.23,595.91 C391.38,597.91 352.06,636.98 348.10,642.75 C346.58,644.96 346.08,646.72 346.54,648.25 C346.91,649.49 384.41,687.78 429.86,733.35 C537.84,841.60 549.12,852.78 552.59,854.99 ZM 510.00 655.25 C530.06,675.42 532.99,678.00 535.81,678.00 C538.70,678.00 547.31,669.70 628.40,588.75 C677.58,539.66 722.84,494.60 728.99,488.62 C735.15,482.63 741.49,475.93 743.09,473.72 L 746.00 469.70 L 746.00 377.80 C746.00,297.38 745.81,285.53 744.47,282.95 L 742.95 280.00 L 654.62 280.00 C606.04,280.00 563.54,280.29 560.17,280.64 C552.34,281.46 551.97,281.76 513.75,319.76 C491.64,341.73 484.00,349.93 484.00,351.67 C484.00,353.38 490.59,360.68 508.66,379.00 C530.11,400.74 533.72,404.00 536.36,404.00 C538.98,404.00 542.36,401.00 561.44,381.75 L 583.50 359.50 L 624.35 359.00 C646.81,358.73 665.58,358.74 666.05,359.03 C668.32,360.44 668.66,366.95 668.22,400.95 C667.87,427.82 667.41,438.17 666.47,440.01 C665.44,442.03 533.02,574.99 494.90,612.28 C484.52,622.43 482.90,625.56 485.76,630.00 C486.64,631.38 497.55,642.74 510.00,655.25 Z" fill="rgb(10,36,73)"/>
<path d="M 240.00 542.16 C238.28,541.92 227.87,532.09 206.62,510.66 C189.64,493.52 174.28,477.70 172.49,475.50 L 169.25 471.50 L 168.53 377.71 C167.88,292.34 167.96,283.70 169.43,281.46 L 171.05 279.00 L 265.46 279.00 C329.04,279.00 360.79,279.34 362.68,280.05 C365.93,281.26 564.57,480.07 565.52,483.05 C565.86,484.12 566.55,485.00 567.07,485.00 C567.58,485.00 568.00,487.07 568.00,489.59 C568.00,494.06 567.73,494.45 557.75,504.69 C552.11,510.47 542.15,520.44 535.61,526.85 C529.06,533.26 523.00,539.29 522.13,540.25 C521.10,541.40 519.08,542.00 516.28,542.00 C512.38,542.00 511.38,541.41 504.85,535.25 C500.91,531.54 491.92,522.65 484.87,515.50 C435.08,464.96 333.02,362.99 330.86,361.60 C328.50,360.09 324.36,359.93 290.86,360.06 C270.31,360.14 252.71,360.41 251.75,360.67 C250.12,361.10 250.00,363.83 250.00,400.03 L 250.00 438.93 L 252.89 442.22 C254.49,444.02 264.34,454.21 274.80,464.86 C292.47,482.85 293.85,484.52 294.47,488.67 C294.98,492.04 294.73,493.77 293.44,495.73 C292.51,497.16 282.01,508.09 270.12,520.01 C247.81,542.40 246.82,543.12 240.00,542.16 ZM 207.67 509.75 C237.49,539.90 238.71,541.00 242.39,541.00 C245.11,541.00 247.26,540.16 249.86,538.09 C255.38,533.68 292.38,496.23 293.37,494.05 C295.26,489.91 293.14,485.24 286.21,478.23 C263.60,455.37 250.12,441.22 249.13,439.32 C247.43,436.04 247.55,361.60 249.25,360.26 C249.99,359.67 266.20,359.00 289.00,358.62 C326.34,357.99 327.60,358.03 330.75,359.97 C333.31,361.55 409.66,437.79 489.50,518.50 C495.00,524.06 502.53,531.39 506.22,534.80 C510.04,538.31 512.31,540.68 514.88,541.05 C519.33,541.70 524.66,536.34 540.37,520.53 C541.37,519.53 542.41,518.48 543.50,517.38 C544.70,516.18 545.84,515.04 546.93,513.94 C562.33,498.48 567.53,493.27 566.99,488.73 C566.68,486.11 564.43,483.71 561.13,479.67 C557.90,475.73 548.57,465.98 540.38,458.00 C532.19,450.02 489.77,407.61 446.10,363.74 C402.43,319.87 365.25,283.08 363.48,281.99 C360.30,280.02 358.66,279.99 265.37,280.24 L 170.50 280.50 L 170.24 375.39 L 169.99 470.28 L 173.38 474.39 C175.25,476.65 190.68,492.56 207.67,509.75 ZM 169.87 855.34 C168.72,853.96 168.56,838.19 168.87,759.09 L 169.23 664.50 L 172.49 660.48 C174.29,658.27 186.61,645.67 199.89,632.48 C213.16,619.29 258.17,574.35 299.91,532.62 L 375.80 456.74 L 379.53 457.44 C381.58,457.82 384.89,459.19 386.88,460.47 C390.93,463.07 425.51,497.82 428.73,502.51 C429.96,504.30 430.79,506.90 431.10,509.71 C429.29,504.10 420.33,494.13 400.90,475.50 C386.66,461.85 384.38,459.56 381.75,459.04 C381.09,458.91 380.42,458.89 379.54,458.83 C375.98,458.59 374.50,460.00 300.50,534.04 C259.02,575.54 214.37,620.08 201.29,633.00 C188.20,645.92 175.81,658.57 173.75,661.10 L 170.00 665.71 L 170.00 760.19 C170.00,812.15 170.30,854.97 170.67,855.33 C171.03,855.70 213.79,856.00 265.69,856.00 L 360.04 856.00 L 363.77 853.61 C365.82,852.29 381.67,836.75 399.00,819.06 C428.46,788.99 430.48,786.70 430.16,783.73 C429.97,781.98 428.99,779.41 427.98,778.02 C426.97,776.63 415.81,765.21 403.17,752.64 L 380.18 729.78 L 377.10 731.60 C375.41,732.60 366.93,740.79 358.26,749.81 C349.59,758.82 339.35,768.90 335.50,772.21 L 328.50 778.23 L 289.53 777.56 C264.43,777.12 250.11,776.51 249.28,775.82 C248.28,774.99 248.00,766.59 248.00,737.50 C248.00,705.93 248.24,699.65 249.57,696.37 C251.20,692.37 255.09,688.44 375.04,569.50 C404.99,539.80 430.04,514.80 430.70,513.95 C430.92,513.68 431.09,513.38 431.21,513.05 C431.20,513.40 431.18,513.76 431.15,514.11 C431.00,515.68 410.35,536.46 304.84,641.21 C276.43,669.42 252.35,693.83 251.34,695.46 C249.62,698.22 249.52,700.91 249.85,736.46 C250.04,757.38 250.40,774.84 250.66,775.25 C250.91,775.66 268.91,776.00 290.65,776.00 L 330.18 776.00 L 353.70 752.50 C368.92,737.29 377.94,729.00 379.25,729.00 C380.56,729.00 389.96,737.69 406.01,753.75 C428.72,776.48 430.78,778.83 431.23,782.50 C431.51,784.70 431.43,787.07 431.06,787.77 C429.83,790.13 369.52,851.28 365.60,854.15 L 361.70 857.00 L 266.47 857.00 C179.01,857.00 171.13,856.86 169.87,855.34 Z" fill="rgb(92,105,128)"/>
<path d="M 552.59 854.99 C549.12,852.78 537.84,841.60 429.86,733.35 C384.41,687.78 346.91,649.49 346.54,648.25 C346.08,646.72 346.58,644.96 348.10,642.75 C352.06,636.98 391.38,597.91 395.23,595.91 C398.95,593.98 398.99,593.98 403.47,596.09 C406.81,597.66 416.55,607.02 441.20,632.35 C486.09,678.48 582.05,774.86 584.37,776.16 C586.99,777.62 663.92,777.31 665.70,775.84 C666.73,774.98 667.00,766.45 667.00,735.13 L 667.00 695.50 L 643.50 672.45 C623.18,652.51 620.00,648.99 620.00,646.40 C620.00,643.82 623.30,640.06 643.25,619.90 C656.04,606.98 667.48,595.60 668.69,594.61 C670.81,592.86 671.01,592.88 675.85,595.52 C682.32,599.04 742.05,659.01 744.69,664.63 C746.39,668.26 746.52,674.09 746.78,760.40 L 747.07 852.30 L 742.65 857.00 L 649.08 856.93 C559.58,856.86 555.37,856.77 552.59,854.99 ZM 207.67 509.75 C190.68,492.56 175.25,476.65 173.38,474.39 L 169.99 470.28 L 170.24 375.39 L 170.50 280.50 L 265.37 280.24 C358.66,279.99 360.30,280.02 363.48,281.99 C365.25,283.08 402.43,319.87 446.10,363.74 C489.77,407.61 532.19,450.02 540.38,458.00 C548.57,465.98 557.90,475.73 561.13,479.67 C564.43,483.71 566.68,486.11 566.99,488.73 C567.53,493.27 562.33,498.48 546.93,513.94 C545.84,515.04 544.70,516.18 543.50,517.38 C542.41,518.48 541.37,519.53 540.37,520.53 C524.66,536.34 519.33,541.70 514.88,541.05 C512.31,540.68 510.04,538.31 506.22,534.80 C502.53,531.39 495.00,524.06 489.50,518.50 C409.66,437.79 333.31,361.55 330.75,359.97 C327.60,358.03 326.34,357.99 289.00,358.62 C266.20,359.00 249.99,359.67 249.25,360.26 C247.55,361.60 247.43,436.04 249.13,439.32 C250.12,441.22 263.60,455.37 286.21,478.23 C293.14,485.24 295.26,489.91 293.37,494.05 C292.38,496.23 255.38,533.68 249.86,538.09 C247.26,540.16 245.11,541.00 242.39,541.00 C238.71,541.00 237.49,539.90 207.67,509.75 ZM 431.10 509.71 C431.22,510.80 431.26,511.93 431.21,513.05 C431.09,513.38 430.92,513.68 430.70,513.95 C430.04,514.80 404.99,539.80 375.04,569.50 C255.09,688.44 251.20,692.37 249.57,696.37 C248.24,699.65 248.00,705.93 248.00,737.50 C248.00,766.59 248.28,774.99 249.28,775.82 C250.11,776.51 264.43,777.12 289.53,777.56 L 328.50 778.23 L 335.50 772.21 C339.35,768.90 349.59,758.82 358.26,749.81 C366.93,740.79 375.41,732.60 377.10,731.60 L 380.18 729.78 L 403.17 752.64 C415.81,765.21 426.97,776.63 427.98,778.02 C428.99,779.41 429.97,781.98 430.16,783.73 C430.48,786.70 428.46,788.99 399.00,819.06 C381.67,836.75 365.82,852.29 363.77,853.61 L 360.04 856.00 L 265.69 856.00 C213.79,856.00 171.03,855.70 170.67,855.33 C170.30,854.97 170.00,812.15 170.00,760.19 L 170.00 665.71 L 173.75 661.10 C175.81,658.57 188.20,645.92 201.29,633.00 C214.37,620.08 259.02,575.54 300.50,534.04 C374.50,460.00 375.98,458.59 379.54,458.83 C380.42,458.89 381.09,458.91 381.75,459.04 C384.38,459.56 386.66,461.85 400.90,475.50 C420.33,494.13 429.29,504.10 431.10,509.71 ZM 208.13 508.25 C234.11,534.29 240.29,540.00 242.51,540.00 C245.91,540.00 250.26,536.56 261.56,524.94 C266.47,519.88 275.56,510.68 281.75,504.50 C288.75,497.51 293.00,492.49 293.00,491.22 C293.00,488.30 287.55,481.83 268.89,462.60 C259.88,453.31 251.15,443.87 249.50,441.63 L 246.50 437.55 L 246.40 399.53 C246.30,362.67 246.36,361.43 248.32,359.25 L 250.35 357.00 L 289.71 357.00 C325.35,357.00 329.33,357.16 331.79,358.73 C333.94,360.11 446.22,472.13 490.13,516.72 C506.63,533.47 514.12,540.17 515.70,539.56 C516.50,539.25 517.88,539.00 518.75,539.00 C521.29,539.00 566.00,493.46 566.00,490.87 C566.00,489.67 564.10,486.17 561.79,483.09 C559.47,480.02 530.33,450.19 497.04,416.82 C463.74,383.44 430.14,349.69 422.37,341.82 C414.59,333.94 404.92,324.32 400.87,320.44 C396.81,316.56 390.88,310.60 387.68,307.19 C384.48,303.79 381.44,301.00 380.93,301.00 C380.42,301.00 380.00,300.63 380.00,300.18 C380.00,298.61 365.91,284.70 362.46,282.85 C359.14,281.07 354.96,281.00 265.24,281.24 L 171.50 281.50 L 171.24 375.40 L 170.99 469.30 L 173.73 472.90 C175.24,474.88 190.72,490.79 208.13,508.25 ZM 172.20 853.80 C173.12,854.72 195.34,855.00 266.12,855.00 L 358.85 855.00 L 363.67 851.37 C366.33,849.37 382.11,833.96 398.74,817.12 C423.17,792.39 428.99,785.99 428.99,783.83 C429.00,780.55 424.82,775.84 400.08,751.28 C387.98,739.27 380.95,733.00 379.57,733.00 C378.18,733.00 370.29,740.20 355.99,754.52 C344.17,766.36 332.77,776.95 330.66,778.05 C327.00,779.97 325.05,780.06 291.66,779.96 C272.32,779.90 255.08,779.62 253.34,779.33 C251.60,779.04 249.23,777.94 248.09,776.87 C246.04,774.96 246.00,774.15 246.00,737.49 C246.00,701.24 246.07,699.93 248.14,695.78 C249.60,692.87 267.78,674.12 304.89,637.25 C380.80,561.83 410.52,532.45 417.70,525.74 C427.23,516.81 429.83,513.10 429.26,509.25 C428.99,507.46 428.37,506.00 427.89,506.00 C427.40,506.00 427.00,505.46 427.00,504.81 C427.00,503.07 390.30,466.42 385.08,462.94 C382.65,461.33 379.72,460.00 378.57,460.00 C377.14,460.00 353.56,482.94 303.49,533.06 C263.35,573.24 218.80,617.74 204.50,631.94 C190.20,646.14 176.81,659.60 174.75,661.84 L 171.00 665.91 L 171.00 759.26 C171.00,830.52 171.28,852.88 172.20,853.80 ZM 554.73 853.61 C556.85,854.55 579.16,854.86 649.60,854.92 C739.88,855.00 741.72,854.96 743.47,853.04 C745.15,851.18 745.21,846.40 744.69,762.79 C744.31,702.31 743.77,672.79 742.99,669.07 C742.16,665.12 740.84,662.58 738.17,659.76 C725.50,646.40 678.25,599.20 676.10,597.76 C670.88,594.26 669.93,594.89 649.67,615.32 C639.12,625.95 628.81,636.58 626.75,638.95 C624.77,641.23 623.37,642.78 623.08,644.53 C622.40,648.51 627.43,653.47 644.31,670.07 L 645.00 670.75 C657.10,682.65 667.00,693.11 667.00,694.00 C667.00,694.88 667.47,696.07 668.04,696.64 C668.70,697.30 669.30,711.84 669.70,736.66 L 670.32 775.64 L 667.41 777.62 C664.65,779.51 662.51,779.62 625.36,779.87 L 586.23 780.14 L 582.15 777.32 C579.91,775.77 578.06,774.03 578.04,773.47 C578.02,772.90 576.65,771.63 575.00,770.66 C573.35,769.68 572.00,768.50 572.00,768.02 C572.00,767.54 548.71,743.79 520.25,715.23 C491.79,686.67 453.88,648.38 436.00,630.14 C403.92,597.40 403.45,596.97 399.47,596.98 C395.55,597.00 394.83,597.62 372.41,620.25 C352.62,640.21 349.37,643.92 349.37,646.50 C349.37,649.14 359.09,659.24 429.94,730.31 C542.81,843.54 551.61,852.23 554.73,853.61 Z" fill="rgb(155,162,175)"/>
<path d="M 172.20 853.80 C171.28,852.88 171.00,830.52 171.00,759.26 L 171.00 665.91 L 174.75 661.84 C176.81,659.60 190.20,646.14 204.50,631.94 C218.80,617.74 263.35,573.24 303.49,533.06 C353.56,482.94 377.14,460.00 378.57,460.00 C379.72,460.00 382.65,461.33 385.08,462.94 C390.30,466.42 427.00,503.07 427.00,504.81 C427.00,505.46 427.40,506.00 427.89,506.00 C428.37,506.00 428.99,507.46 429.26,509.25 C429.83,513.10 427.23,516.81 417.70,525.74 C410.52,532.45 380.80,561.83 304.89,637.25 C267.78,674.12 249.60,692.87 248.14,695.78 C246.07,699.93 246.00,701.24 246.00,737.49 C246.00,774.15 246.04,774.96 248.09,776.87 C249.23,777.94 251.60,779.04 253.34,779.33 C255.08,779.62 272.32,779.90 291.66,779.96 C325.05,780.06 327.00,779.97 330.66,778.05 C332.77,776.95 344.17,766.36 355.99,754.52 C370.29,740.20 378.18,733.00 379.57,733.00 C380.95,733.00 387.98,739.27 400.08,751.28 C424.82,775.84 429.00,780.55 428.99,783.83 C428.99,785.99 423.17,792.39 398.74,817.12 C382.11,833.96 366.33,849.37 363.67,851.37 L 358.85 855.00 L 266.12 855.00 C195.34,855.00 173.12,854.72 172.20,853.80 ZM 554.73 853.61 C551.61,852.23 542.81,843.54 429.94,730.31 C359.09,659.24 349.37,649.14 349.37,646.50 C349.37,643.92 352.62,640.21 372.41,620.25 C394.83,597.62 395.55,597.00 399.47,596.98 C403.45,596.97 403.92,597.40 436.00,630.14 C453.88,648.38 491.79,686.67 520.25,715.23 C548.71,743.79 572.00,767.54 572.00,768.02 C572.00,768.50 573.35,769.68 575.00,770.66 C576.65,771.63 578.02,772.90 578.04,773.47 C578.06,774.03 579.91,775.77 582.15,777.32 L 586.23 780.14 L 625.36 779.87 C662.51,779.62 664.65,779.51 667.41,777.62 L 670.32 775.64 L 669.70 736.66 C669.30,711.84 668.70,697.30 668.04,696.64 C667.47,696.07 667.00,694.88 667.00,694.00 C667.00,693.11 657.10,682.65 645.00,670.75 C620.03,646.18 620.20,646.48 626.75,638.95 C628.81,636.58 639.12,625.95 649.67,615.32 C669.93,594.89 670.88,594.26 676.10,597.76 C678.25,599.20 725.50,646.40 738.17,659.76 C740.84,662.58 742.16,665.12 742.99,669.07 C743.77,672.79 744.31,702.31 744.69,762.79 C745.21,846.40 745.15,851.18 743.47,853.04 C741.72,854.96 739.88,855.00 649.60,854.92 C579.16,854.86 556.85,854.55 554.73,853.61 ZM 510.00 655.25 C497.55,642.74 486.64,631.38 485.76,630.00 C482.90,625.56 484.52,622.43 494.90,612.28 C533.02,574.99 665.44,442.03 666.47,440.01 C667.41,438.17 667.87,427.82 668.22,400.95 C668.66,366.95 668.32,360.44 666.05,359.03 C665.58,358.74 646.81,358.73 624.35,359.00 L 583.50 359.50 L 561.44 381.75 C542.36,401.00 538.98,404.00 536.36,404.00 C533.72,404.00 530.11,400.74 508.66,379.00 C490.59,360.68 484.00,353.38 484.00,351.67 C484.00,349.93 491.64,341.73 513.75,319.76 C551.97,281.76 552.34,281.46 560.17,280.64 C563.54,280.29 606.04,280.00 654.62,280.00 L 742.95 280.00 L 744.47 282.95 C745.81,285.53 746.00,297.38 746.00,377.80 L 746.00 469.70 L 743.09 473.72 C741.49,475.93 735.15,482.63 728.99,488.62 C722.84,494.60 677.58,539.66 628.40,588.75 C547.31,669.70 538.70,678.00 535.81,678.00 C532.99,678.00 530.06,675.42 510.00,655.25 ZM 208.13 508.25 C190.72,490.79 175.24,474.88 173.73,472.90 L 170.99 469.30 L 171.24 375.40 L 171.50 281.50 L 265.24 281.24 C354.96,281.00 359.14,281.07 362.46,282.85 C365.91,284.70 380.00,298.61 380.00,300.18 C380.00,300.63 380.42,301.00 380.93,301.00 C381.44,301.00 384.48,303.79 387.68,307.19 C390.88,310.60 396.81,316.56 400.87,320.44 C404.92,324.32 414.59,333.94 422.37,341.82 C430.14,349.69 463.74,383.44 497.04,416.82 C530.33,450.19 559.47,480.02 561.79,483.09 C564.10,486.17 566.00,489.67 566.00,490.87 C566.00,493.46 521.29,539.00 518.75,539.00 C517.88,539.00 516.50,539.25 515.70,539.56 C514.12,540.17 506.63,533.47 490.13,516.72 C446.22,472.13 333.94,360.11 331.79,358.73 C329.33,357.16 325.35,357.00 289.71,357.00 L 250.35 357.00 L 248.32 359.25 C246.36,361.43 246.30,362.67 246.40,399.53 L 246.50 437.55 L 249.50 441.63 C251.15,443.87 259.88,453.31 268.89,462.60 C287.55,481.83 293.00,488.30 293.00,491.22 C293.00,492.49 288.75,497.51 281.75,504.50 C275.56,510.68 266.47,519.88 261.56,524.94 C250.26,536.56 245.91,540.00 242.51,540.00 C240.29,540.00 234.11,534.29 208.13,508.25 Z" fill="rgb(251,252,251)"/>
</g>
</svg>