<svg xmlns="http://www.w3.org/2000/svg" xmlns:xlink="http://www.w3.org/1999/xlink" width="1080" zoomAndPan="magnify" viewBox="0 0 810 1012.49997" height="1350" preserveAspectRatio="xMidYMid meet" version="1.0"><defs><clipPath id="7ba1e8e8e0"><path d="M 0.199219 0 L 809.800781 0 L 809.800781 1012 L 0.199219 1012 Z M 0.199219 0 " clip-rule="nonzero"/></clipPath><clipPath id="dc1e22f84b"><path d="M 438.636719 332.316406 L 512.890625 332.316406 L 512.890625 495.203125 L 438.636719 495.203125 Z M 438.636719 332.316406 " clip-rule="nonzero"/></clipPath><clipPath id="33b7d80004"><path d="M 0.636719 0.316406 L 74.890625 0.316406 L 74.890625 163.203125 L 0.636719 163.203125 Z M 0.636719 0.316406 " clip-rule="nonzero"/></clipPath><clipPath id="196829c698"><rect x="0" width="75" y="0" height="164"/></clipPath><clipPath id="6fe25fd8b1"><path d="M 340.15625 422.1875 L 500.007812 422.1875 L 500.007812 495.230469 L 340.15625 495.230469 Z M 340.15625 422.1875 " clip-rule="nonzero"/></clipPath><clipPath id="fe532b3f99"><path d="M 0.15625 0.1875 L 160 0.1875 L 160 73.230469 L 0.15625 73.230469 Z M 0.15625 0.1875 " clip-rule="nonzero"/></clipPath><clipPath id="a66d235f51"><rect x="0" width="161" y="0" height="74"/></clipPath><clipPath id="f5fb5946ce"><path d="M 350 219 L 513 219 L 513 382 L 350 382 Z M 350 219 " clip-rule="nonzero"/></clipPath><clipPath id="0ab92e83a9"><path d="M 463.578125 381.996094 L 350.542969 268.964844 L 399.847656 219.664062 L 512.878906 332.695312 Z M 463.578125 381.996094 " clip-rule="nonzero"/></clipPath><clipPath id="ffddfdd671"><path d="M 0.433594 0.605469 L 163 0.605469 L 163 163 L 0.433594 163 Z M 0.433594 0.605469 " clip-rule="nonzero"/></clipPath><clipPath id="9e90d32b7e"><path d="M 113.578125 162.996094 L 0.542969 49.964844 L 49.847656 0.664062 L 162.878906 113.695312 Z M 113.578125 162.996094 " clip-rule="nonzero"/></clipPath><clipPath id="5a84144588"><rect x="0" width="163" y="0" height="163"/></clipPath><clipPath id="c1a5a4d815"><path d="M 275 113 L 513 113 L 513 351 L 275 351 Z M 275 113 " clip-rule="nonzero"/></clipPath><clipPath id="64c62b88aa"><path d="M 512.882812 165.617188 L 327.738281 350.765625 L 275.566406 298.59375 L 460.710938 113.445312 Z M 512.882812 165.617188 " clip-rule="nonzero"/></clipPath><clipPath id="224d888714"><path d="M 0.351562 0.335938 L 238 0.335938 L 238 237.820312 L 0.351562 237.820312 Z M 0.351562 0.335938 " clip-rule="nonzero"/></clipPath><clipPath id="3fc5ad3f31"><path d="M 237.882812 52.617188 L 52.738281 237.765625 L 0.566406 185.59375 L 185.710938 0.445312 Z M 237.882812 52.617188 " clip-rule="nonzero"/></clipPath><clipPath id="ef22ecd603"><rect x="0" width="238" y="0" height="238"/></clipPath><clipPath id="9c17f313d2"><path d="M 439.09375 1.140625 L 512.875 1.140625 L 512.875 165.867188 L 439.09375 165.867188 Z M 439.09375 1.140625 " clip-rule="nonzero"/></clipPath><clipPath id="73eb9e7569"><path d="M 0.09375 0.140625 L 73.875 0.140625 L 73.875 164.867188 L 0.09375 164.867188 Z M 0.09375 0.140625 " clip-rule="nonzero"/></clipPath><clipPath id="b0fb69cc05"><rect x="0" width="74" y="0" height="165"/></clipPath><clipPath id="b9233d93eb"><path d="M 340.132812 1.128906 L 499.988281 1.128906 L 499.988281 74.910156 L 340.132812 74.910156 Z M 340.132812 1.128906 " clip-rule="nonzero"/></clipPath><clipPath id="7e1f589f09"><path d="M 0.132812 0.128906 L 159.988281 0.128906 L 159.988281 73.910156 L 0.132812 73.910156 Z M 0.132812 0.128906 " clip-rule="nonzero"/></clipPath><clipPath id="48087521a7"><rect x="0" width="160" y="0" height="74"/></clipPath><clipPath id="7512d0e589"><path d="M 275 1 L 392 1 L 392 118 L 275 118 Z M 275 1 " clip-rule="nonzero"/></clipPath><clipPath id="33e6c3eca0"><path d="M 391.855469 53.3125 L 327.71875 117.449219 L 275.546875 65.277344 L 339.683594 1.140625 Z M 391.855469 53.3125 " clip-rule="nonzero"/></clipPath><clipPath id="341b91ac44"><path d="M 0.351562 0.0703125 L 116.933594 0.0703125 L 116.933594 116.65625 L 0.351562 116.65625 Z M 0.351562 0.0703125 " clip-rule="nonzero"/></clipPath><clipPath id="33d9e58aa9"><path d="M 116.855469 52.3125 L 52.71875 116.449219 L 0.546875 64.277344 L 64.683594 0.140625 Z M 116.855469 52.3125 " clip-rule="nonzero"/></clipPath><clipPath id="de46cbec82"><rect x="0" width="117" y="0" height="117"/></clipPath><clipPath id="e4cc15bfb2"><path d="M 161 260 L 392 260 L 392 495.46875 L 161 495.46875 Z M 161 260 " clip-rule="nonzero"/></clipPath><clipPath id="2f286ab7b1"><path d="M 213.058594 260.738281 L 391.867188 445.921875 L 340.796875 495.234375 L 161.988281 310.050781 Z M 213.058594 260.738281 " clip-rule="nonzero"/></clipPath><clipPath id="84b4d4c79f"><path d="M 0.886719 0.625 L 230.933594 0.625 L 230.933594 235.46875 L 0.886719 235.46875 Z M 0.886719 0.625 " clip-rule="nonzero"/></clipPath><clipPath id="cb79ba7926"><path d="M 52.058594 0.738281 L 230.867188 185.921875 L 179.796875 235.234375 L 0.988281 50.050781 Z M 52.058594 0.738281 " clip-rule="nonzero"/></clipPath><clipPath id="fb3bdb5b42"><rect x="0" width="231" y="0" height="236"/></clipPath><clipPath id="30a06d438e"><path d="M 1.085938 0.765625 L 75.339844 0.765625 L 75.339844 163.652344 L 1.085938 163.652344 Z M 1.085938 0.765625 " clip-rule="nonzero"/></clipPath><clipPath id="4b6db6c033"><path d="M 0.0859375 0.765625 L 74.339844 0.765625 L 74.339844 163.652344 L 0.0859375 163.652344 Z M 0.0859375 0.765625 " clip-rule="nonzero"/></clipPath><clipPath id="c9a18ddb21"><rect x="0" width="75" y="0" height="164"/></clipPath><clipPath id="a264775eff"><path d="M 13.96875 0.742188 L 173.824219 0.742188 L 173.824219 73.78125 L 13.96875 73.78125 Z M 13.96875 0.742188 " clip-rule="nonzero"/></clipPath><clipPath id="7fa3b052a6"><path d="M 1 0.742188 L 160.824219 0.742188 L 160.824219 73.78125 L 1 73.78125 Z M 1 0.742188 " clip-rule="nonzero"/></clipPath><clipPath id="7f8e2396b7"><rect x="0" width="161" y="0" height="74"/></clipPath><clipPath id="d0e2527b98"><path d="M 1 113 L 164 113 L 164 277 L 1 277 Z M 1 113 " clip-rule="nonzero"/></clipPath><clipPath id="f2976b0992"><path d="M 50.398438 113.972656 L 163.433594 227.007812 L 114.132812 276.308594 L 1.097656 163.273438 Z M 50.398438 113.972656 " clip-rule="nonzero"/></clipPath><clipPath id="7fabec2fee"><path d="M 0 0.816406 L 162.566406 0.816406 L 162.566406 163.457031 L 0 163.457031 Z M 0 0.816406 " clip-rule="nonzero"/></clipPath><clipPath id="8ff2852efb"><path d="M 49.398438 0.972656 L 162.433594 114.007812 L 113.132812 163.308594 L 0.0976562 50.273438 Z M 49.398438 0.972656 " clip-rule="nonzero"/></clipPath><clipPath id="38e0e1b86d"><rect x="0" width="163" y="0" height="164"/></clipPath><clipPath id="589808a6a1"><path d="M 1 145 L 239 145 L 239 383 L 1 383 Z M 1 145 " clip-rule="nonzero"/></clipPath><clipPath id="3d3f6045ab"><path d="M 1.113281 330.375 L 186.261719 145.230469 L 238.433594 197.402344 L 53.285156 382.546875 Z M 1.113281 330.375 " clip-rule="nonzero"/></clipPath><clipPath id="3e8ac5bb1d"><path d="M 0 0 L 237.648438 0 L 237.648438 237.722656 L 0 237.722656 Z M 0 0 " clip-rule="nonzero"/></clipPath><clipPath id="7ad1d3e3fe"><path d="M 0.113281 185.375 L 185.261719 0.230469 L 237.433594 52.402344 L 52.285156 237.546875 Z M 0.113281 185.375 " clip-rule="nonzero"/></clipPath><clipPath id="4d5ade9199"><rect x="0" width="238" y="0" height="238"/></clipPath><clipPath id="5c3afdf616"><path d="M 1.109375 330.125 L 74.890625 330.125 L 74.890625 494.851562 L 1.109375 494.851562 Z M 1.109375 330.125 " clip-rule="nonzero"/></clipPath><clipPath id="45f3b76ecc"><path d="M 0.109375 0.125 L 73.890625 0.125 L 73.890625 164.851562 L 0.109375 164.851562 Z M 0.109375 0.125 " clip-rule="nonzero"/></clipPath><clipPath id="19b844da0a"><rect x="0" width="74" y="0" height="165"/></clipPath><clipPath id="3bccb11c09"><path d="M 13.992188 421.082031 L 173.84375 421.082031 L 173.84375 494.863281 L 13.992188 494.863281 Z M 13.992188 421.082031 " clip-rule="nonzero"/></clipPath><clipPath id="fbbc28f7a5"><path d="M 0.992188 0.0820312 L 160.84375 0.0820312 L 160.84375 73.863281 L 0.992188 73.863281 Z M 0.992188 0.0820312 " clip-rule="nonzero"/></clipPath><clipPath id="c5d1175e83"><rect x="0" width="161" y="0" height="74"/></clipPath><clipPath id="d6b11c90b1"><path d="M 122 378 L 239 378 L 239 495 L 122 495 Z M 122 378 " clip-rule="nonzero"/></clipPath><clipPath id="b874d63eb1"><path d="M 122.117188 442.683594 L 186.257812 378.542969 L 238.429688 430.714844 L 174.289062 494.855469 Z M 122.117188 442.683594 " clip-rule="nonzero"/></clipPath><clipPath id="52eff63c55"><path d="M 0.0664062 0.40625 L 116.648438 0.40625 L 116.648438 116.988281 L 0.0664062 116.988281 Z M 0.0664062 0.40625 " clip-rule="nonzero"/></clipPath><clipPath id="f8305bb0e2"><path d="M 0.117188 64.683594 L 64.257812 0.542969 L 116.429688 52.714844 L 52.289062 116.855469 Z M 0.117188 64.683594 " clip-rule="nonzero"/></clipPath><clipPath id="b8c7290ef2"><rect x="0" width="117" y="0" height="117"/></clipPath><clipPath id="7eda4dba5b"><path d="M 122 0.59375 L 352 0.59375 L 352 236 L 122 236 Z M 122 0.59375 " clip-rule="nonzero"/></clipPath><clipPath id="e5b3ae40a6"><path d="M 300.921875 235.242188 L 122.113281 50.058594 L 173.183594 0.742188 L 351.992188 185.929688 Z M 300.921875 235.242188 " clip-rule="nonzero"/></clipPath><clipPath id="eea0f744c5"><path d="M 0.0664062 0.59375 L 230 0.59375 L 230 235.4375 L 0.0664062 235.4375 Z M 0.0664062 0.59375 " clip-rule="nonzero"/></clipPath><clipPath id="ed6bb0c2d8"><path d="M 178.921875 235.242188 L 0.113281 50.058594 L 51.183594 0.742188 L 229.992188 185.929688 Z M 178.921875 235.242188 " clip-rule="nonzero"/></clipPath><clipPath id="86f91cdcc7"><rect x="0" width="230" y="0" height="236"/></clipPath><clipPath id="f2626eb0de"><rect x="0" width="514" y="0" height="496"/></clipPath></defs><g clip-path="url(#7ba1e8e8e0)"><path fill="#ffffff" d="M 0.199219 0 L 809.800781 0 L 809.800781 1012 L 0.199219 1012 Z M 0.199219 0 " fill-opacity="1" fill-rule="nonzero"/><path fill="#1a2b4a" d="M 0.199219 0 L 809.800781 0 L 809.800781 1012 L 0.199219 1012 Z M 0.199219 0 " fill-opacity="1" fill-rule="nonzero"/></g><g transform="matrix(1, 0, 0, 1, 148, 258)"><g clip-path="url(#f2626eb0de)"><g clip-path="url(#dc1e22f84b)"><g transform="matrix(1, 0, 0, 1, 438, 332)"><g clip-path="url(#196829c698)"><g clip-path="url(#33b7d80004)"><path fill="#ffffff" d="M 0.636719 163.203125 L 0.636719 0.191406 L 74.890625 0.191406 L 74.890625 163.203125 Z M 0.636719 163.203125 " fill-opacity="1" fill-rule="nonzero"/></g></g></g></g><g clip-path="url(#6fe25fd8b1)"><g transform="matrix(1, 0, 0, 1, 340, 422)"><g clip-path="url(#a66d235f51)"><g clip-path="url(#fe532b3f99)"><path fill="#ffffff" d="M 0.15625 0.1875 L 159.933594 0.1875 L 159.933594 73.230469 L 0.15625 73.230469 Z M 0.15625 0.1875 " fill-opacity="1" fill-rule="nonzero"/></g></g></g></g><g clip-path="url(#f5fb5946ce)"><g clip-path="url(#0ab92e83a9)"><g transform="matrix(1, 0, 0, 1, 350, 219)"><g clip-path="url(#5a84144588)"><g clip-path="url(#ffddfdd671)"><g clip-path="url(#9e90d32b7e)"><path fill="#ffffff" d="M 113.578125 162.996094 L 0.53125 49.949219 L 49.832031 0.648438 L 162.878906 113.695312 Z M 113.578125 162.996094 " fill-opacity="1" fill-rule="nonzero"/></g></g></g></g></g></g><g clip-path="url(#c1a5a4d815)"><g clip-path="url(#64c62b88aa)"><g transform="matrix(1, 0, 0, 1, 275, 113)"><g clip-path="url(#ef22ecd603)"><g clip-path="url(#224d888714)"><g clip-path="url(#3fc5ad3f31)"><path fill="#ffffff" d="M 237.882812 52.617188 L 52.835938 237.664062 L 0.664062 185.492188 L 185.710938 0.445312 Z M 237.882812 52.617188 " fill-opacity="1" fill-rule="nonzero"/></g></g></g></g></g></g><g clip-path="url(#9c17f313d2)"><g transform="matrix(1, 0, 0, 1, 439, 1)"><g clip-path="url(#b0fb69cc05)"><g clip-path="url(#73eb9e7569)"><path fill="#ffffff" d="M 73.875 0.140625 L 73.875 164.996094 L 0.09375 164.996094 L 0.09375 0.140625 Z M 73.875 0.140625 " fill-opacity="1" fill-rule="nonzero"/></g></g></g></g><g clip-path="url(#b9233d93eb)"><g transform="matrix(1, 0, 0, 1, 340, 1)"><g clip-path="url(#48087521a7)"><g clip-path="url(#7e1f589f09)"><path fill="#ffffff" d="M 159.988281 73.910156 L 0.03125 73.910156 L 0.03125 0.128906 L 159.988281 0.128906 Z M 159.988281 73.910156 " fill-opacity="1" fill-rule="nonzero"/></g></g></g></g><g clip-path="url(#7512d0e589)"><g clip-path="url(#33e6c3eca0)"><g transform="matrix(1, 0, 0, 1, 275, 1)"><g clip-path="url(#de46cbec82)"><g clip-path="url(#341b91ac44)"><g clip-path="url(#33d9e58aa9)"><path fill="#ffffff" d="M 116.855469 52.3125 L 52.660156 116.507812 L 0.488281 64.335938 L 64.683594 0.140625 Z M 116.855469 52.3125 " fill-opacity="1" fill-rule="nonzero"/></g></g></g></g></g></g><g clip-path="url(#e4cc15bfb2)"><g clip-path="url(#2f286ab7b1)"><g transform="matrix(1, 0, 0, 1, 161, 260)"><g clip-path="url(#fb3bdb5b42)"><g clip-path="url(#84b4d4c79f)"><g clip-path="url(#cb79ba7926)"><path fill="#ffffff" d="M 52.058594 0.738281 L 230.816406 185.867188 L 179.746094 235.179688 L 0.988281 50.050781 Z M 52.058594 0.738281 " fill-opacity="1" fill-rule="nonzero"/></g></g></g></g></g></g><g clip-path="url(#30a06d438e)"><g transform="matrix(1, 0, 0, 1, 1, 0)"><g clip-path="url(#c9a18ddb21)"><g clip-path="url(#4b6db6c033)"><path fill="#ffffff" d="M 74.339844 0.765625 L 74.339844 163.777344 L 0.0859375 163.777344 L 0.0859375 0.765625 Z M 74.339844 0.765625 " fill-opacity="1" fill-rule="nonzero"/></g></g></g></g><g clip-path="url(#a264775eff)"><g transform="matrix(1, 0, 0, 1, 13, 0)"><g clip-path="url(#7f8e2396b7)"><g clip-path="url(#7fa3b052a6)"><path fill="#ffffff" d="M 160.824219 73.78125 L 1.046875 73.78125 L 1.046875 0.742188 L 160.824219 0.742188 Z M 160.824219 73.78125 " fill-opacity="1" fill-rule="nonzero"/></g></g></g></g><g clip-path="url(#d0e2527b98)"><g clip-path="url(#f2976b0992)"><g transform="matrix(1, 0, 0, 1, 1, 113)"><g clip-path="url(#38e0e1b86d)"><g clip-path="url(#7fabec2fee)"><g clip-path="url(#8ff2852efb)"><path fill="#ffffff" d="M 49.398438 0.972656 L 162.445312 114.019531 L 113.144531 163.320312 L 0.0976562 50.273438 Z M 49.398438 0.972656 " fill-opacity="1" fill-rule="nonzero"/></g></g></g></g></g></g><g clip-path="url(#589808a6a1)"><g clip-path="url(#3d3f6045ab)"><g transform="matrix(1, 0, 0, 1, 1, 145)"><g clip-path="url(#4d5ade9199)"><g clip-path="url(#3e8ac5bb1d)"><g clip-path="url(#7ad1d3e3fe)"><path fill="#ffffff" d="M 0.113281 185.375 L 185.164062 0.328125 L 237.335938 52.5 L 52.285156 237.546875 Z M 0.113281 185.375 " fill-opacity="1" fill-rule="nonzero"/></g></g></g></g></g></g><g clip-path="url(#5c3afdf616)"><g transform="matrix(1, 0, 0, 1, 1, 330)"><g clip-path="url(#19b844da0a)"><g clip-path="url(#45f3b76ecc)"><path fill="#ffffff" d="M 0.109375 164.851562 L 0.109375 -0.00390625 L 73.890625 -0.00390625 L 73.890625 164.851562 Z M 0.109375 164.851562 " fill-opacity="1" fill-rule="nonzero"/></g></g></g></g><g clip-path="url(#3bccb11c09)"><g transform="matrix(1, 0, 0, 1, 13, 421)"><g clip-path="url(#c5d1175e83)"><g clip-path="url(#fbbc28f7a5)"><path fill="#ffffff" d="M 0.992188 0.0820312 L 160.949219 0.0820312 L 160.949219 73.863281 L 0.992188 73.863281 Z M 0.992188 0.0820312 " fill-opacity="1" fill-rule="nonzero"/></g></g></g></g><g clip-path="url(#d6b11c90b1)"><g clip-path="url(#b874d63eb1)"><g transform="matrix(1, 0, 0, 1, 122, 378)"><g clip-path="url(#b8c7290ef2)"><g clip-path="url(#52eff63c55)"><g clip-path="url(#f8305bb0e2)"><path fill="#ffffff" d="M 0.117188 64.683594 L 64.316406 0.484375 L 116.488281 52.65625 L 52.289062 116.855469 Z M 0.117188 64.683594 " fill-opacity="1" fill-rule="nonzero"/></g></g></g></g></g></g><g clip-path="url(#7eda4dba5b)"><g clip-path="url(#e5b3ae40a6)"><g transform="matrix(1, 0, 0, 1, 122, 0)"><g clip-path="url(#86f91cdcc7)"><g clip-path="url(#eea0f744c5)"><g clip-path="url(#ed6bb0c2d8)"><path fill="#ffffff" d="M 178.921875 235.242188 L 0.164062 50.109375 L 51.234375 0.796875 L 229.992188 185.929688 Z M 178.921875 235.242188 " fill-opacity="1" fill-rule="nonzero"/></g></g></g></g></g></g></g></g></svg>